<svg xmlns="http://www.w3.org/2000/svg" data-name="Layer 1" viewBox="0 0 100 125" x="0px" y="0px"><path d="M68,65.92H51V52.28c2,.38,6.82.91,10.51-1.46,4.8-3.09,5.92-10,5.92-10S60.72,39,55.91,42.11A13.5,13.5,0,0,0,51,48.63V37.7s0,0,0-.05a18.1,18.1,0,1,0-2,0s0,0,0,.05V55.43a13.41,13.41,0,0,0-4.91-6.52c-4.81-3.09-11.52-1.25-11.52-1.25s1.12,6.87,5.92,10C42.18,60,47,59.46,49,59.08v6.84H32a3.91,3.91,0,0,0-2.75,1.14A3.9,3.9,0,0,0,32,73.71H68a3.9,3.9,0,1,0,0-7.79ZM45.2,27.53a5.27,5.27,0,0,1-1.12-1.3,1.55,1.55,0,1,1,2.77-1.38,3.53,3.53,0,0,0,.59.89,3.16,3.16,0,0,0,1.26.85V20.53c-1.06-.34-1.91-.64-2.52-.9a5.39,5.39,0,0,1-2-1.58,4.55,4.55,0,0,1-.87-2.92,4.55,4.55,0,0,1,.78-2.63,5.19,5.19,0,0,1,2.19-1.78,7.47,7.47,0,0,1,2.44-.6V8.43a1.3,1.3,0,0,1,2.6,0v1.81a6.38,6.38,0,0,1,3.24,1.41,5.49,5.49,0,0,1,1,1.24,1.44,1.44,0,0,1-1.23,2.19,1.76,1.76,0,0,1-1.59-.9,3.29,3.29,0,0,0-.54-.76,2.93,2.93,0,0,0-.92-.62v5.83a24.34,24.34,0,0,1,2.64,1,5.13,5.13,0,0,1,2,1.61,4.61,4.61,0,0,1,.81,2.85,4.91,4.91,0,0,1-.7,2.56,5,5,0,0,1-2.11,1.9,7.05,7.05,0,0,1-2.6.68v1.56a1.3,1.3,0,0,1-2.6,0V29.08A6.9,6.9,0,0,1,45.2,27.53Z"/><path d="M34.74,94.6a4.51,4.51,0,0,0,4.47,3.9H60.77a4.51,4.51,0,0,0,4.47-3.9l2.57-18.89H32.17Z"/><path d="M48.7,12.51a2.83,2.83,0,0,0-1.38.62,2.35,2.35,0,0,0-.8,1.89,2.35,2.35,0,0,0,.77,1.85,6,6,0,0,0,1.41.86Z"/><path d="M53.48,24.15a2.37,2.37,0,0,0-.8-1.9,5.92,5.92,0,0,0-1.38-.82v5.36a2.82,2.82,0,0,0,1.37-.68A2.57,2.57,0,0,0,53.48,24.15Z"/><text x="0" y="115" fill="#000000" font-size="5px" font-weight="bold" font-family="'Helvetica Neue', Helvetica, Arial-Unicode, Arial, Sans-serif">Created by Boris Müller</text><text x="0" y="120" fill="#000000" font-size="5px" font-weight="bold" font-family="'Helvetica Neue', Helvetica, Arial-Unicode, Arial, Sans-serif">from the Noun Project</text></svg>