<?xml version="1.0" standalone="no"?>
<!DOCTYPE svg PUBLIC "-//W3C//DTD SVG 20010904//EN"
 "http://www.w3.org/TR/2001/REC-SVG-20010904/DTD/svg10.dtd">
<svg version="1.0" xmlns="http://www.w3.org/2000/svg"
 width="1200.000000pt" height="1200.000000pt" viewBox="0 0 1200.000000 1200.000000"
 preserveAspectRatio="xMidYMid meet">

<g transform="translate(0.000000,1200.000000) scale(0.100000,-0.100000)"
fill="#000000" stroke="none">
<path d="M0 6000 l0 -6000 6000 0 6000 0 0 6000 0 6000 -6000 0 -6000 0 0
-6000z m6325 4220 c419 -62 773 -188 1130 -403 466 -280 860 -708 1110 -1204
381 -757 415 -1662 92 -2448 -150 -366 -356 -675 -642 -960 -181 -181 -273
-258 -460 -384 -389 -260 -875 -434 -1344 -481 -133 -13 -459 -13 -592 0 -374
38 -727 144 -1075 325 -837 434 -1417 1250 -1559 2193 -38 255 -38 597 0 857
76 518 292 1013 624 1430 85 106 293 316 416 419 463 388 1050 627 1655 676
164 13 484 3 645 -20z m-3218 -6494 c70 -39 103 -88 110 -164 3 -35 0 -74 -7
-97 -25 -74 -124 -149 -238 -180 -38 -10 -43 -14 -27 -20 94 -33 147 -74 171
-132 22 -51 17 -131 -10 -188 -39 -83 -112 -140 -229 -180 -74 -25 -81 -25
-376 -25 -176 0 -301 4 -301 9 0 34 13 41 75 41 47 0 66 4 77 18 18 21 252
878 243 892 -3 5 -36 10 -72 10 -55 0 -64 2 -59 16 3 9 6 20 6 25 0 7 107 9
293 7 l292 -3 52 -29z m1308 14 c-25 -78 -225 -825 -232 -865 -12 -68 -6 -95
19 -95 37 0 105 97 141 203 7 18 37 24 37 6 0 -19 -70 -162 -96 -196 -49 -64
-123 -82 -163 -39 -18 19 -24 40 -28 88 -5 58 4 98 101 453 59 215 109 398
112 408 5 15 -3 17 -70 17 -57 0 -76 3 -76 13 0 25 12 27 137 27 120 0 124 -1
118 -20z m411 3 c-3 -10 -55 -202 -117 -428 -118 -432 -135 -525 -96 -533 28
-6 80 57 117 142 19 42 40 76 47 76 20 0 16 -20 -23 -100 -61 -128 -110 -175
-176 -168 -51 5 -73 45 -73 131 0 61 17 132 108 458 59 212 107 389 107 392 0
4 -31 7 -69 7 -67 0 -89 9 -76 30 4 6 59 10 131 10 115 0 125 -1 120 -17z
m690 1 c-3 -9 -6 -20 -6 -25 0 -5 -29 -9 -63 -9 -48 0 -68 -4 -79 -17 -8 -10
-36 -97 -62 -193 -26 -96 -49 -183 -52 -192 -5 -17 10 -18 213 -18 l218 0 54
199 c29 110 50 204 47 210 -4 6 -35 11 -70 11 -62 0 -63 0 -58 25 l4 25 215 0
c192 0 214 -2 209 -16 -3 -9 -6 -20 -6 -25 0 -5 -27 -9 -59 -9 -76 0 -88 -5
-100 -43 -37 -115 -231 -854 -227 -864 4 -9 26 -13 69 -13 63 0 64 0 59 -25
l-4 -25 -213 0 -212 0 5 25 c4 23 8 25 66 25 33 0 67 4 75 9 11 7 131 404 131
434 0 4 -98 6 -217 5 l-217 -3 -58 -210 c-32 -115 -56 -216 -53 -222 3 -9 27
-13 71 -13 56 0 65 -2 60 -16 -3 -9 -6 -20 -6 -25 0 -5 -91 -9 -214 -9 l-213
0 5 25 c4 23 8 25 66 25 35 0 69 6 78 13 18 14 253 871 244 893 -4 10 -23 14
-66 14 -57 0 -60 1 -60 25 l0 25 216 0 c193 0 215 -2 210 -16z m4074 -36 c0
-7 -18 -78 -40 -158 -22 -80 -40 -151 -40 -157 0 -9 22 -13 76 -13 66 0 75 -2
72 -17 -3 -15 -16 -18 -85 -21 l-82 -3 -11 -42 c-7 -23 -33 -123 -60 -222 -60
-225 -65 -248 -51 -274 31 -57 106 6 142 118 21 66 40 93 55 78 8 -8 -34 -137
-60 -183 -47 -84 -141 -110 -197 -55 -47 47 -42 120 26 366 30 110 55 203 55
208 0 4 -21 7 -46 7 -38 0 -45 3 -42 18 2 13 15 18 54 20 l51 3 43 162 c23 89
45 165 47 170 7 13 93 8 93 -5z m-6075 -340 c60 -54 47 -177 -39 -375 -65
-152 -76 -193 -52 -212 37 -31 118 27 185 133 63 100 141 263 176 366 l32 95
38 3 c21 2 41 0 46 -5 5 -5 -21 -114 -56 -243 -74 -270 -86 -336 -61 -346 37
-14 108 68 144 169 11 32 22 47 34 47 10 0 18 -3 18 -6 0 -3 -17 -43 -39 -88
-63 -135 -131 -193 -200 -171 -47 15 -67 107 -46 210 8 38 15 72 15 75 0 3
-24 -34 -52 -83 -67 -110 -117 -170 -161 -191 -110 -52 -183 30 -157 175 6 33
37 121 69 197 69 161 77 190 58 216 -13 17 -18 18 -45 7 -36 -15 -69 -60 -112
-153 -18 -38 -38 -68 -46 -68 -20 0 -18 13 20 94 34 75 95 152 131 166 36 15
73 10 100 -12z m2920 2 c16 -10 39 -38 51 -61 l21 -42 13 51 12 52 49 0 c27 0
49 -2 49 -5 0 -3 -25 -94 -55 -203 -71 -258 -87 -331 -80 -359 14 -57 84 1
137 114 24 51 45 83 54 83 19 0 13 -20 -33 -117 -57 -117 -131 -172 -198 -147
-26 11 -45 60 -45 121 l0 58 -34 -50 c-41 -62 -107 -122 -141 -131 -39 -10
-105 2 -133 23 -47 35 -67 89 -66 178 1 136 49 259 136 351 89 94 196 128 263
84z m616 -6 c22 -23 24 -34 24 -115 0 -49 1 -89 2 -89 0 0 20 35 43 78 56 102
108 152 158 152 49 0 79 -22 91 -67 21 -75 -50 -154 -108 -122 -33 18 -41 72
-15 100 20 22 8 44 -19 33 -46 -17 -157 -241 -229 -461 l-43 -132 -47 -1 c-27
0 -48 3 -48 7 0 4 27 107 60 230 87 322 93 363 50 363 -35 0 -109 -110 -144
-212 -6 -20 -36 -25 -36 -7 0 7 19 53 43 103 72 150 157 205 218 140z m614 4
c63 -55 53 -163 -35 -368 -67 -156 -74 -183 -60 -210 13 -25 83 -27 135 -5 79
32 182 177 220 307 24 84 18 119 -24 140 -56 28 -81 55 -81 88 0 40 31 70 73
70 164 -2 113 -376 -77 -565 -87 -87 -192 -118 -266 -80 -47 24 -63 67 -58
149 4 59 15 97 66 216 34 80 65 160 68 177 7 35 -8 63 -32 63 -29 0 -84 -64
-124 -145 -24 -51 -47 -85 -56 -85 -19 0 -13 21 28 105 73 147 156 200 223
143z m852 2 c67 -40 67 -145 0 -211 -44 -44 -143 -89 -227 -102 -69 -10 -70
-11 -77 -46 -4 -20 -8 -71 -8 -113 0 -68 3 -79 25 -103 23 -24 30 -27 83 -23
37 3 67 11 85 25 25 19 104 125 114 153 2 7 12 11 21 9 16 -4 15 -9 -9 -57
-100 -201 -320 -232 -401 -55 -62 134 -7 345 119 458 87 79 206 107 275 65z
m540 9 c60 -22 113 -93 113 -150 0 -63 -69 -101 -112 -62 -25 23 -23 55 7 83
32 30 32 53 -2 80 -40 31 -140 25 -179 -10 -34 -32 -47 -67 -39 -107 5 -27 24
-46 105 -108 54 -41 106 -85 114 -97 9 -13 16 -43 16 -71 0 -112 -86 -194
-216 -205 -132 -10 -223 57 -224 166 0 72 71 120 114 76 26 -25 20 -60 -15
-84 -24 -18 -30 -28 -27 -54 4 -43 52 -66 136 -66 98 0 152 38 152 108 0 54
-25 87 -114 152 -70 51 -88 69 -102 106 -39 101 21 210 134 244 39 12 106 12
139 -1z m-1090 -1103 c39 -46 13 -106 -46 -106 -52 0 -87 75 -41 87 29 8 25
33 -5 33 -34 0 -45 -27 -45 -114 l0 -76 140 0 140 0 0 -160 0 -160 25 0 c37 0
45 28 45 166 0 109 -2 129 -17 140 -15 11 -5 13 70 14 l87 0 0 -165 c0 -158 1
-165 20 -165 11 0 20 -4 20 -10 0 -6 -35 -10 -85 -10 -68 0 -85 3 -85 15 0 11
-7 10 -35 -7 -46 -27 -126 -21 -158 11 -20 20 -22 33 -25 166 l-3 145 -70 0
-69 0 0 -155 0 -155 39 0 c22 0 43 -4 46 -10 4 -6 -42 -10 -130 -10 -88 0
-134 4 -130 10 3 6 13 10 21 10 12 0 14 27 14 154 0 150 0 154 -22 161 l-23 8
23 4 c17 3 22 11 22 36 1 18 7 49 14 70 29 79 78 109 175 104 56 -3 67 -7 88
-31z m-1587 -241 c0 -224 2 -265 14 -265 8 0 18 -4 21 -10 4 -6 -35 -10 -110
-10 -75 0 -114 4 -110 10 3 6 15 10 26 10 18 0 19 9 19 255 0 246 -1 255 -19
255 -11 0 -23 5 -26 10 -4 6 28 10 89 10 l96 0 0 -265z m520 149 l0 -115 26
20 c32 25 101 28 143 6 41 -21 51 -61 51 -201 0 -101 3 -124 14 -124 8 0 18
-4 21 -10 4 -6 -32 -10 -102 -10 -92 1 -105 3 -90 14 15 11 17 31 17 144 0
144 -3 162 -31 162 -35 0 -49 -50 -49 -176 0 -100 3 -119 18 -130 14 -11 0
-13 -96 -14 -73 0 -111 4 -107 10 3 6 15 10 26 10 18 0 19 9 19 255 0 246 -1
255 -19 255 -11 0 -23 5 -26 10 -4 6 28 10 89 10 l96 0 0 -116z m-3103 80 c20
-20 24 -31 19 -57 -8 -40 -30 -57 -75 -57 -47 0 -71 24 -71 71 0 67 76 94 127
43z m-277 -99 l0 -65 51 0 c31 0 48 -4 44 -10 -3 -5 -26 -10 -51 -10 l-44 0 0
-138 c0 -105 3 -143 14 -158 19 -24 45 -11 66 34 8 17 18 32 23 32 17 0 -7
-57 -34 -82 -24 -23 -39 -28 -79 -28 -113 0 -130 27 -130 208 0 126 -1 130
-22 137 l-23 8 23 4 c19 4 22 11 22 53 l0 48 58 15 c86 23 82 25 82 -48z
m3080 0 l0 -65 51 0 c31 0 48 -4 44 -10 -3 -5 -26 -10 -51 -10 l-44 0 0 -138
c0 -99 4 -143 13 -156 20 -27 53 -12 69 30 14 41 33 46 24 7 -4 -16 -20 -40
-37 -55 -56 -52 -175 -32 -198 33 -6 18 -11 87 -11 154 0 118 -1 123 -22 130
l-23 8 23 4 c19 4 22 11 22 52 l0 48 63 15 c34 9 65 16 70 17 4 0 7 -28 7 -64z
m1950 0 l0 -65 51 0 c31 0 48 -4 44 -10 -3 -5 -26 -10 -51 -10 l-44 0 0 -138
c0 -99 4 -143 13 -156 20 -27 53 -12 69 30 14 41 33 46 24 7 -4 -16 -20 -40
-37 -55 -56 -52 -175 -32 -198 33 -6 18 -11 87 -11 154 0 118 -1 123 -22 130
l-23 8 23 4 c19 4 22 11 22 52 l0 48 63 15 c34 9 65 16 70 17 4 0 7 -28 7 -64z
m-3862 23 c7 -7 12 -24 12 -38 0 -14 -5 -31 -12 -38 -30 -30 -94 1 -68 33 15
18 7 30 -15 22 -26 -10 -20 -79 10 -107 32 -30 41 -77 22 -123 -22 -52 -57
-70 -145 -77 -110 -7 -104 -26 10 -32 142 -8 188 -38 188 -124 0 -94 -69 -138
-215 -138 -105 1 -161 21 -172 62 -11 44 26 80 70 68 23 -5 27 -12 27 -40 0
-42 19 -63 64 -71 75 -15 157 35 141 84 -8 25 -24 29 -137 34 -76 3 -91 7
-113 27 -36 33 -32 66 12 107 29 28 33 37 22 44 -8 5 -17 9 -21 9 -14 0 -38
59 -38 93 0 82 75 133 183 124 l57 -5 0 31 c0 42 25 67 70 67 20 0 41 -5 48
-12z m-2543 -93 c54 -26 73 -97 35 -135 -24 -24 -67 -26 -92 -3 -23 20 -25 73
-2 73 11 0 14 8 12 28 -2 21 -9 28 -30 30 -43 5 -53 -26 -53 -159 0 -101 3
-120 19 -138 38 -42 111 -21 136 39 13 30 30 41 30 18 0 -28 -42 -80 -75 -94
-47 -19 -132 -18 -175 4 -68 34 -99 117 -79 211 13 62 40 98 93 122 50 23 136
24 181 4z m405 -5 c25 -25 27 -91 4 -114 -25 -26 -81 -20 -100 9 -18 28 -13
55 11 55 8 0 15 9 15 20 0 21 -8 24 -35 14 -31 -12 -44 -58 -45 -165 -2 -144
-2 -139 19 -139 11 0 23 -4 26 -10 4 -6 -37 -10 -115 -10 -78 0 -119 4 -115
10 3 6 15 10 26 10 18 0 19 8 19 155 0 147 -1 155 -19 155 -11 0 -23 5 -26 10
-4 6 29 10 90 10 79 0 96 -3 92 -14 -10 -25 3 -25 28 0 31 31 96 33 125 4z
m315 -4 c35 -23 56 -59 62 -106 l6 -40 -108 0 -108 0 7 -57 c8 -74 32 -107 79
-111 44 -4 81 18 97 58 7 17 16 30 21 30 12 0 11 -7 -7 -46 -46 -96 -236 -97
-308 -1 -15 20 -21 47 -24 96 -6 102 32 164 117 192 38 12 138 3 166 -15z
m372 4 c41 -25 53 -67 53 -197 0 -64 4 -104 11 -109 15 -9 29 14 29 49 0 15 5
27 10 27 25 0 -1 -95 -30 -110 -32 -17 -106 -12 -131 9 -23 18 -24 18 -50 -2
-22 -16 -38 -19 -80 -15 -64 6 -89 32 -89 88 0 63 41 90 137 90 l56 0 -5 76
c-5 80 -21 110 -51 98 -22 -8 -22 -33 0 -49 14 -11 16 -18 8 -41 -13 -35 -53
-52 -92 -38 -23 8 -29 16 -31 47 -6 67 41 96 153 97 52 0 78 -5 102 -20z m995
-9 l33 -29 3 -141 c3 -110 7 -141 17 -141 8 0 17 -4 20 -10 4 -6 -32 -10 -99
-10 -64 0 -106 4 -106 10 0 6 7 10 15 10 13 0 15 22 15 134 0 148 -3 166 -31
166 -35 0 -49 -50 -49 -176 0 -100 3 -119 18 -130 14 -11 0 -13 -96 -14 -73 0
-111 4 -107 10 3 6 15 10 26 10 18 0 19 8 19 155 0 147 -1 155 -19 155 -11 0
-23 5 -26 10 -4 6 28 10 89 10 81 0 96 -3 96 -16 0 -13 5 -12 26 5 42 33 115
29 156 -8z m1475 6 c35 -18 63 -70 63 -116 l0 -31 -100 0 -100 0 0 -59 c0 -78
24 -111 82 -111 32 0 46 6 69 31 16 17 29 37 29 45 0 8 5 14 10 14 15 0 12
-22 -9 -56 -39 -64 -173 -83 -254 -37 -93 53 -102 239 -15 302 59 43 161 51
225 18z m390 -10 c27 -27 28 -31 33 -160 4 -108 8 -132 20 -132 9 0 16 11 18
30 2 17 8 35 14 40 7 7 9 -4 5 -35 -7 -58 -34 -80 -97 -80 -32 0 -55 6 -72 20
-25 19 -26 19 -43 0 -13 -14 -31 -20 -61 -20 -55 0 -89 16 -103 47 -35 77 17
133 124 133 l55 0 0 71 c0 98 -25 136 -61 93 -11 -14 -11 -18 4 -29 41 -29 7
-95 -49 -95 -39 0 -64 22 -64 56 0 68 49 95 167 92 75 -3 85 -6 110 -31z
m3340 11 c28 -26 31 -82 6 -110 -9 -10 -30 -18 -49 -18 -59 0 -85 53 -41 83
17 12 19 18 10 27 -17 18 -39 6 -60 -32 -13 -25 -18 -63 -21 -150 l-4 -118 25
0 c14 0 29 -4 32 -10 4 -6 -37 -10 -115 -10 -78 0 -119 4 -115 10 3 6 13 10
21 10 12 0 14 27 14 155 0 128 -2 155 -14 155 -8 0 -18 5 -21 10 -4 6 27 10
84 10 86 0 91 -1 91 -21 0 -20 1 -20 31 5 39 33 93 35 126 4z m318 -2 c34 -22
52 -53 60 -103 l7 -43 -106 0 -106 0 0 -44 c0 -55 17 -104 40 -116 49 -26 119
3 142 59 10 22 12 23 16 7 2 -10 -5 -30 -15 -45 -58 -79 -215 -82 -283 -4 -65
74 -61 204 8 266 52 47 182 59 237 23z m294 13 c24 -8 35 -8 46 1 13 11 15 4
15 -46 l0 -59 -20 25 c-11 14 -20 28 -20 32 0 14 -59 38 -93 38 -38 0 -61 -19
-55 -47 2 -13 27 -26 83 -45 101 -34 125 -59 125 -131 0 -59 -16 -89 -60 -112
-34 -18 -104 -19 -149 -4 -24 9 -35 9 -44 0 -21 -21 -27 -10 -27 54 0 36 3 65
8 65 4 0 15 -19 25 -40 22 -47 60 -70 115 -70 44 0 65 18 60 51 -2 17 -19 27
-83 50 -95 33 -125 62 -125 120 0 103 90 156 199 118z m-6239 -163 c0 -161 0
-164 23 -172 17 -6 8 -9 -35 -11 -86 -6 -179 1 -150 11 22 8 22 12 22 162 0
127 -2 154 -14 154 -8 0 -18 5 -21 10 -4 6 27 10 84 10 l91 0 0 -164z m1240
154 c0 -5 -9 -10 -21 -10 -15 0 -19 -4 -15 -16 3 -8 15 -52 27 -97 11 -45 24
-87 28 -94 4 -8 16 15 30 57 24 77 22 150 -5 150 -8 0 -14 5 -14 10 0 6 38 10
95 10 52 0 95 -4 95 -9 0 -5 -5 -11 -12 -13 -9 -3 -4 -34 16 -111 16 -59 30
-106 32 -104 5 5 54 190 54 205 0 6 -9 12 -20 12 -11 0 -20 5 -20 10 0 6 23
10 50 10 28 0 50 -4 50 -10 0 -5 -7 -10 -15 -10 -15 0 -17 -7 -69 -205 l-31
-120 -55 0 -54 0 -30 104 -30 105 -33 -108 -34 -107 -51 3 -51 3 -55 163 c-34
103 -59 162 -67 162 -8 0 -17 5 -20 10 -4 6 35 10 109 10 71 0 116 -4 116 -10z
m2290 0 c0 -5 -7 -10 -15 -10 -8 0 -15 -4 -15 -8 0 -8 52 -166 66 -202 3 -9
22 31 45 95 21 61 38 111 39 113 0 1 -9 2 -19 2 -11 0 -23 5 -26 10 -4 6 15
10 49 10 31 0 56 -4 56 -10 0 -5 -8 -10 -18 -10 -14 0 -32 -42 -91 -212 -40
-117 -83 -228 -94 -247 -39 -65 -134 -78 -177 -24 -24 31 -25 51 -4 81 28 41
114 19 114 -29 0 -10 -9 -23 -21 -30 -26 -14 -11 -32 22 -27 25 3 70 74 84
130 6 24 4 27 -25 30 -32 3 -33 4 -93 166 -35 94 -66 162 -73 162 -7 0 -16 5
-19 10 -4 6 33 10 104 10 67 0 111 -4 111 -10z m1500 -150 l0 -160 25 0 c37 0
45 28 45 166 0 109 -2 129 -17 140 -15 11 -5 13 70 14 l87 0 0 -165 c0 -158 1
-165 20 -165 11 0 20 -4 20 -10 0 -6 -35 -10 -85 -10 -68 0 -85 3 -85 15 0 11
-7 10 -35 -7 -46 -27 -126 -21 -158 11 -20 20 -22 33 -25 166 -3 135 -5 145
-23 145 -10 0 -19 5 -19 10 0 6 37 10 90 10 l90 0 0 -160z"/>
<path d="M5645 10109 c-648 -66 -1235 -338 -1695 -786 -248 -241 -419 -473
-565 -768 -208 -419 -298 -800 -299 -1260 -1 -280 21 -459 90 -723 133 -515
420 -997 805 -1354 143 -133 210 -185 384 -300 368 -244 802 -400 1245 -449
161 -18 496 -15 654 5 324 41 601 125 902 271 295 145 555 334 784 572 427
443 685 974 777 1598 27 186 24 582 -5 775 -97 622 -367 1163 -798 1594 -288
289 -593 490 -969 639 -209 83 -353 122 -625 168 -144 24 -530 34 -685 18z
m1169 -1019 c-20 -75 -10 -136 33 -207 l35 -58 -33 -28 c-19 -15 -38 -26 -44
-24 -42 14 -71 182 -45 263 11 36 59 118 66 112 1 -2 -4 -28 -12 -58z m613
-90 c3 -42 -1 -79 -10 -105 -15 -42 -22 -44 -75 -24 l-25 10 21 22 c31 34 53
97 55 159 2 55 2 56 16 30 8 -15 16 -56 18 -92z m-216 -125 c40 -9 75 -17 77
-19 2 -3 -17 -16 -42 -31 -54 -31 -61 -64 -22 -90 22 -15 27 -15 58 0 18 10
49 33 69 52 l37 35 43 -28 c35 -23 60 -30 128 -35 87 -7 116 -20 153 -70 52
-71 23 -220 -63 -313 -56 -62 -149 -127 -253 -177 l-68 -34 -48 -96 c-202
-402 -263 -659 -276 -1174 l-5 -220 59 -187 60 -188 -47 0 c-25 0 -90 -3 -143
-7 l-96 -6 -68 209 -67 209 -66 71 c-36 39 -79 89 -94 111 -36 52 -76 150 -77
185 0 15 -3 29 -7 31 -10 6 -347 -28 -438 -44 -38 -6 -92 -20 -120 -31 -63
-25 -101 -19 -222 33 -51 21 -97 39 -101 39 -5 0 -14 -18 -21 -40 -17 -56
-123 -167 -219 -228 -42 -27 -133 -77 -202 -112 -69 -34 -171 -87 -227 -118
l-101 -56 -102 -258 c-56 -141 -104 -259 -108 -261 -7 -4 -245 14 -250 18 -2
2 4 27 12 56 9 29 28 131 42 228 45 302 77 394 182 518 34 40 66 90 71 110 6
21 12 121 13 221 l3 184 -35 -6 c-121 -19 -144 -18 -190 6 -25 14 -58 44 -75
67 -29 42 -30 46 -30 159 0 107 3 128 39 248 l39 130 -29 44 c-40 60 -40 139
0 225 l28 60 54 -58 c64 -68 114 -151 114 -189 0 -14 -11 -39 -24 -55 -39 -46
-108 -299 -110 -400 -1 -73 1 -84 23 -107 29 -31 54 -32 168 -10 77 16 83 18
112 59 62 86 145 123 426 189 221 52 304 80 435 147 124 64 204 125 320 245
110 114 205 250 306 437 97 182 145 217 296 217 62 0 135 -17 218 -52 49 -21
83 -9 164 59 149 127 152 128 297 98z m-1816 -2215 l-7 -110 101 -161 c56 -88
101 -164 101 -168 0 -8 -177 -81 -196 -81 -7 0 -57 61 -113 135 -84 112 -107
151 -137 231 -20 53 -32 100 -28 104 9 8 276 159 283 160 2 0 0 -49 -4 -110z
m955 -740 l0 -510 -255 0 -255 0 0 510 0 510 255 0 255 0 0 -510z m850 -160
l0 -350 -255 0 -255 0 0 350 0 350 255 0 255 0 0 -350z m-1700 -35 l0 -315
-255 0 -255 0 0 315 0 315 255 0 255 0 0 -315z m-860 -105 l0 -210 -255 0
-255 0 0 210 0 210 255 0 255 0 0 -210z"/>
<path d="M6676 8200 c-65 -42 -123 -85 -128 -95 -15 -25 -1 -64 28 -77 13 -6
23 -15 22 -19 -2 -3 -84 -122 -183 -263 -170 -241 -181 -255 -197 -238 -9 9
-71 89 -138 177 -66 88 -128 163 -138 166 -23 9 -58 -6 -70 -28 -5 -10 -27
-101 -47 -203 -21 -102 -41 -189 -46 -194 -4 -5 -62 35 -129 88 -72 57 -130
96 -144 96 -12 0 -36 -15 -53 -32 -58 -63 -270 -334 -277 -355 -5 -15 1 -29
17 -49 40 -46 60 -31 197 140 72 92 127 153 134 149 6 -4 61 -46 121 -93 148
-116 160 -123 190 -116 34 9 38 21 80 226 20 96 37 175 38 176 1 2 58 -71 126
-162 105 -139 128 -164 150 -164 14 0 31 4 37 8 6 4 75 99 154 212 79 113 175
249 213 303 l69 99 19 -21 c24 -26 60 -27 82 -3 9 10 30 82 47 161 29 133 30
144 16 167 -27 40 -60 30 -190 -56z"/>
<path d="M2748 3698 c-10 -8 -35 -85 -62 -188 -26 -96 -49 -183 -52 -192 -5
-16 4 -18 105 -18 60 0 133 5 160 11 115 24 187 122 179 245 -5 73 -25 109
-79 136 -42 22 -225 26 -251 6z"/>
<path d="M2617 3243 c-15 -25 -118 -426 -113 -438 9 -24 276 -21 332 4 122 56
179 234 114 360 -32 64 -77 81 -217 81 -61 0 -114 -3 -116 -7z"/>
<path d="M6297 3315 c-87 -89 -166 -324 -155 -459 6 -69 20 -86 69 -86 33 0
47 7 82 43 83 83 155 255 164 392 5 77 4 82 -22 113 -22 26 -34 32 -65 32 -31
0 -46 -7 -73 -35z"/>
<path d="M8364 3330 c-44 -29 -94 -102 -115 -173 -10 -34 -19 -64 -19 -66 0
-2 28 -1 62 3 125 13 189 68 196 168 3 37 0 63 -8 73 -17 21 -79 18 -116 -5z"/>
<path d="M4466 2074 c-3 -9 -6 -49 -6 -89 0 -40 3 -80 6 -89 9 -24 41 -19 48
7 7 29 7 135 0 165 -7 25 -39 30 -48 6z"/>
<path d="M2736 2075 c-3 -9 -6 -39 -6 -66 0 -48 1 -49 30 -49 l31 0 -3 63 c-3
54 -6 62 -24 65 -13 2 -24 -4 -28 -13z"/>
<path d="M3116 1888 c-23 -32 -20 -118 3 -118 15 0 31 51 31 95 0 50 -11 57
-34 23z"/>
<path d="M5582 2078 c-6 -6 -12 -36 -12 -65 0 -52 0 -53 30 -53 l31 0 -3 62
c-3 65 -18 84 -46 56z"/>
<path d="M5962 1898 c-14 -14 -16 -128 -2 -128 17 0 30 38 30 89 0 52 -6 61
-28 39z"/>
<path d="M9620 2064 c-6 -14 -10 -43 -10 -65 0 -38 1 -39 35 -39 l35 0 0 53
c0 53 -12 77 -37 77 -8 0 -18 -12 -23 -26z"/>
</g>
</svg>
